Coordinates
version=1
nRows=13
nColumns=38
inDegrees=no

Units are S.I. units (second, meters, Newtons, ...)
If the header above contains a line with 'inDegrees', this indicates whether rotational values are in degrees (yes) or radians (no).

endheader
time	pelvis_tilt	pelvis_list	pelvis_rotation	pelvis_tx	pelvis_ty	pelvis_tz	hip_flexion_r	hip_adduction_r	hip_rotation_r	knee_angle_r	ankle_angle_r	subtalar_angle_r	mtp_angle_r	hip_flexion_l	hip_adduction_l	hip_rotation_l	knee_angle_l	ankle_angle_l	subtalar_angle_l	mtp_angle_l	lumbar_extension	lumbar_bending	lumbar_rotation	arm_flex_r	arm_add_r	arm_rot_r	elbow_flex_r	pro_sup_r	wrist_flex_r	wrist_dev_r	arm_flex_l	arm_add_l	arm_rot_l	elbow_flex_l	pro_sup_l	wrist_flex_l	wrist_dev_l
0.76	0.419152	1.33111	-1.87867	0.771775	1.15162	0.937691	0.319191	-0.289863	-0.474541	0.518648	0.180156	0	0	-0.336429	0.0913759	-0.154233	0.17002	0.249696	0	0	-0.397654	-0.101134	-0.107528	-0.0579708	-0.300002	0.275768	0.838373	1.30413	0	0	0.264023	-0.530077	0.635764	0.954424	0.673539	0	0
0.77	0.419793	1.33526	-1.88341	0.770719	1.14336	0.936051	0.327471	-0.281459	-0.476522	0.487571	0.189847	0	0	-0.336401	0.0878801	-0.165115	0.182027	0.261245	0	0	-0.396309	-0.0995572	-0.103853	-0.0538853	-0.29864	0.274797	0.833838	1.30261	0	0	0.268185	-0.52893	0.631359	0.954104	0.684768	0	0
0.78	0.419139	1.33861	-1.88785	0.769531	1.13499	0.934518	0.334279	-0.272398	-0.475476	0.458663	0.196969	0	0	-0.341709	0.0862668	-0.168273	0.184943	0.268202	0	0	-0.395805	-0.0980467	-0.0992375	-0.0498344	-0.297734	0.277067	0.827873	1.30388	0	0	0.271978	-0.527196	0.627352	0.953057	0.696185	0	0
0.79	0.416964	1.34179	-1.88989	0.768363	1.1265	0.932989	0.339608	-0.263485	-0.4745	0.432697	0.202162	0	0	-0.342303	0.0817387	-0.18038	0.198903	0.280233	0	0	-0.395469	-0.0958788	-0.0952167	-0.0459643	-0.296987	0.279242	0.821769	1.3065	0	0	0.275293	-0.525283	0.624014	0.951704	0.707324	0	0
0.8	0.414738	1.34415	-1.89132	0.767175	1.11774	0.931564	0.343145	-0.25556	-0.474225	0.410937	0.20571	0	0	-0.348166	0.0789861	-0.183717	0.20397	0.287945	0	0	-0.395553	-0.0937681	-0.0917154	-0.0426389	-0.295758	0.27909	0.815703	1.30747	0	0	0.277688	-0.523387	0.621209	0.950137	0.717721	0	0
0.81	0.412492	1.34634	-1.89109	0.766081	1.10877	0.930105	0.345963	-0.249317	-0.475992	0.395614	0.207513	0	0	-0.350706	0.0741113	-0.192432	0.216917	0.298687	0	0	-0.395532	-0.0910623	-0.0896893	-0.0399145	-0.294388	0.277896	0.809831	1.30615	0	0	0.279192	-0.521732	0.619329	0.948625	0.727169	0	0
0.82	0.409748	1.34866	-1.88885	0.765052	1.09953	0.928606	0.348375	-0.244618	-0.479921	0.387004	0.207349	0	0	-0.351422	0.0674668	-0.203529	0.234448	0.311491	0	0	-0.395037	-0.0876039	-0.0888378	-0.0381183	-0.293344	0.279544	0.803086	1.30742	0	0	0.279827	-0.520196	0.618888	0.946646	0.735469	0	0
0.83	0.406578	1.34978	-1.88547	0.764085	1.09	0.927246	0.349085	-0.241646	-0.484681	0.384929	0.20527	0	0	-0.35655	0.0621942	-0.208097	0.245716	0.320524	0	0	-0.395227	-0.0840602	-0.0886284	-0.0370137	-0.292327	0.280719	0.79655	1.30934	0	0	0.279481	-0.518635	0.61958	0.944022	0.742376	0	0
0.84	0.403059	1.34963	-1.88009	0.763255	1.08015	0.926036	0.347229	-0.240148	-0.488964	0.387976	0.202525	0	0	-0.363211	0.0565763	-0.21082	0.256961	0.328118	0	0	-0.396278	-0.0801	-0.0902648	-0.0365404	-0.291018	0.279487	0.790911	1.30934	0	0	0.277743	-0.517509	0.620568	0.942484	0.747586	0	0
0.85	0.399177	1.3478	-1.87306	0.762526	1.06997	0.92505	0.342049	-0.239581	-0.491463	0.39493	0.1995	0	0	-0.37415	0.0520791	-0.207057	0.263068	0.33205	0	0	-0.398485	-0.0760213	-0.0931257	-0.0369349	-0.289449	0.275505	0.786127	1.30557	0	0	0.275136	-0.516449	0.622474	0.941286	0.750885	0	0
0.86	0.397033	1.34589	-1.86661	0.761854	1.05959	0.924054	0.336054	-0.240085	-0.493196	0.406361	0.195527	0	0	-0.382191	0.0459187	-0.206896	0.275603	0.337394	0	0	-0.400366	-0.0717917	-0.0973531	-0.0377428	-0.288311	0.274074	0.781183	1.30199	0	0	0.271496	-0.51571	0.624952	0.940795	0.752224	0	0
0.87	0.396846	1.34442	-1.86165	0.7611	1.04894	0.923013	0.330056	-0.241234	-0.494252	0.421481	0.190077	0	0	-0.388356	0.0388972	-0.208116	0.291369	0.342949	0	0	-0.401064	-0.067797	-0.10234	-0.0389499	-0.287436	0.276335	0.775406	1.30097	0	0	0.266307	-0.515585	0.627668	0.941224	0.751747	0	0
0.88	0.399095	1.34278	-1.85932	0.760195	1.03797	0.922033	0.323099	-0.242663	-0.494942	0.437105	0.185394	0	0	-0.396334	0.0333255	-0.204892	0.303417	0.345288	0	0	-0.40095	-0.0645876	-0.107663	-0.040366	-0.286494	0.280436	0.768834	1.30157	0	0	0.259413	-0.51626	0.631567	0.940812	0.749863	0	0
